<svg xmlns="http://www.w3.org/2000/svg" width="1440" height="900" viewBox="0 0 1440 900">
    <g fill="none" fill-rule="evenodd">
        <g fill-rule="nonzero">
            <g>
                <path fill="#9B0F17" d="M0 0H1440V900H0z"/>
                <g>
                    <path fill="#A11119" d="M636.8 636.8c-102-31.9-203.9-63.8-302.5-112.9-98.6-49-193.8-115.3-249-205.5C30.2 228.2 15.1 114.1 0 0h636.8v636.8z" transform="translate(803.200000, 0.000000)"/>
                    <path fill="#AE141C" d="M636.8 545.8c-87.4-27.3-174.8-54.6-259.3-96.7s-166.1-98.9-213.4-176.2C116.8 195.6 103.9 97.8 91 0h545.8v545.8z" transform="translate(803.200000, 0.000000)"/>
                    <path fill="#BB1720" d="M636.8 454.9c-72.8-22.8-145.6-45.6-216.1-80.7-70.4-35-138.4-82.4-177.8-146.8C203.5 163 192.7 81.5 181.9 0h454.9v454.9z" transform="translate(803.200000, 0.000000)"/>
                    <path fill="#C81A24" d="M636.8 363.9c-58.3-18.2-116.5-36.5-172.9-64.5-56.3-28-110.7-65.9-142.2-117.5C290.2 130.4 281.5 65.2 272.9 0h363.9v363.9z" transform="translate(803.200000, 0.000000)"/>
                    <path fill="#D61D28" d="M636.8 272.9c-43.7-13.7-87.4-27.3-129.6-48.4-42.3-21-83.1-49.4-106.7-88C376.8 97.8 370.4 48.9 363.9 0h272.9v272.9z" transform="translate(803.200000, 0.000000)"/>
                    <path fill="#E3202C" d="M636.8 181.9c-29.1-9.1-58.3-18.2-86.4-32.2-28.2-14-55.4-33-71.2-58.7-15.7-25.8-20-58.4-24.3-91h181.9v181.9z" transform="translate(803.200000, 0.000000)"/>
                    <path fill="#EA212E" d="M636.8 91c-14.6-4.6-29.1-9.1-43.2-16.2-14.1-7-27.7-16.4-35.6-29.3-7.9-12.9-10-29.2-12.2-45.5h91v91z" transform="translate(803.200000, 0.000000)"/>
                </g>
                <g>
                    <path fill="#A11119" d="M0 0c90.8 51.3 181.5 102.6 281.5 149.2 100 46.7 209.2 88.7 270 169.2 60.7 80.5 73 199.4 85.3 318.4H0V0z" transform="translate(0.000000, 263.200000)"/>
                    <path fill="#AE141C" d="M0 91c77.8 43.9 155.6 87.9 241.3 127.9 85.7 40 179.3 76 231.4 145 52.1 69 62.6 170.9 73.1 272.9H0V91z" transform="translate(0.000000, 263.200000)"/>
                    <path fill="#BB1720" d="M0 181.9c64.8 36.7 129.6 73.3 201.1 106.6 71.4 33.4 149.4 63.4 192.8 120.9 43.4 57.5 52.2 142.4 61 227.4H0V181.9z" transform="translate(0.000000, 263.200000)"/>
                    <path fill="#C81A24" d="M0 272.9c51.9 29.3 103.7 58.6 160.9 85.3 57.1 26.6 119.5 50.7 154.2 96.7 34.7 46 41.8 113.9 48.8 181.9H0V272.9z" transform="translate(0.000000, 263.200000)"/>
                    <path fill="#D61D28" d="M0 363.9c38.9 22 77.8 43.9 120.6 63.9 42.9 20 89.7 38 115.7 72.5 26.1 34.5 31.3 85.5 36.6 136.5H0V363.9z" transform="translate(0.000000, 263.200000)"/>
                    <path fill="#E3202C" d="M0 454.9c25.9 14.6 51.9 29.3 80.4 42.6 28.6 13.3 59.8 25.3 77.2 48.3 17.3 23 20.8 57 24.3 91H0V454.9z" transform="translate(0.000000, 263.200000)"/>
                    <path fill="#EA212E" d="M0 545.8c13 7.4 25.9 14.7 40.2 21.3 14.3 6.7 29.9 12.7 38.6 24.2 8.7 11.5 10.4 28.5 12.2 45.5H0v-91z" transform="translate(0.000000, 263.200000)"/>
                </g>
            </g>
        </g>
    </g>
</svg>
